<?xml version="1.0" encoding="utf-8"?>
<!-- Generator: Adobe Illustrator 24.1.1, SVG Export Plug-In . SVG Version: 6.00 Build 0)  -->
<svg version="1.1" id="Capa_1" xmlns="http://www.w3.org/2000/svg" xmlns:xlink="http://www.w3.org/1999/xlink" x="0px" y="0px"
	 viewBox="0 0 72 71" style="enable-background:new 0 0 72 71;" xml:space="preserve">
<path d="M3,65c0,1.7,1.3,3,3,3h39c1.7,0,3-1.3,3-3v-2.9H3V65z M25.5,26.6C14.3,26.6,3,32.5,3,44.4h45C48,32.5,36.8,26.6,25.5,26.6z
	 M10.9,38.5c3.3-4.6,10.4-5.9,14.6-5.9s11.3,1.4,14.6,5.9H10.9z M3,50.3h45v5.9H3V50.3z M54,14.8V3h-6v11.8H33l0.7,5.9h28.7
	l-4.2,41.4H54V68h5.2c2.5,0,4.6-1.9,4.9-4.3L69,14.8H54z"/>
</svg>
