<svg width="67" height="61" viewBox="0 0 67 61" fill="none" xmlns="http://www.w3.org/2000/svg">
<path d="M2.65369 12.8084V17.4422V22.076L15.7241 23.3117L28.7944 22.076L30.135 17.4422L28.7944 12.8084H15.7241H2.65369Z" fill="#BD8176"/>
<path d="M51.2695 42.3591C53.305 42.1476 55.2636 41.6177 57.0743 40.7978C58.8745 39.9826 60.5285 38.881 61.9662 37.5207C63.5894 35.985 64.8479 34.2036 65.7006 32.2703C66.553 30.337 67 28.2517 67 26.1074C67 23.4629 65.833 21.0648 63.9486 19.328C62.0643 17.5911 59.4629 16.5154 56.594 16.5154H55.7644H54.9352L53.5946 18.369L54.9352 20.2225H55.7646H56.5941C58.3544 20.2225 59.9503 20.8825 61.1064 21.9481C62.2625 23.0138 62.9785 24.485 62.9785 26.1074C62.9785 28.8841 62.0295 31.4428 60.408 33.5215C58.7457 35.6526 56.3765 37.2795 53.5982 38.1201L51.2216 40.2995L51.2695 42.3591Z" fill="#743F31"/>
<path d="M2.65369 22.076V26.7098V31.3436C2.65369 37.5457 5.92021 43.1551 10.8702 47.189C15.7241 51.1448 22.1964 53.5859 28.7944 53.5859L30.135 37.8309L28.7944 22.076H15.7241H2.65369Z" fill="#EFD550"/>
<path d="M54.9352 12.8084H41.8648H28.7944V17.4422V22.076L41.8648 23.3117L54.9352 22.076V17.4422V12.8084Z" fill="#9F5B4C"/>
<path d="M28.7944 22.076V37.8309V53.5859C35.3925 53.5859 41.8648 51.1448 46.7187 47.189C51.6685 43.1551 54.9352 37.5459 54.9352 31.3436V26.7098V22.076H41.8648H28.7944Z" fill="#E7BA3C"/>
<path d="M23.5839 30.9835C21.7887 32.6385 20.6328 34.56 20.1718 36.4184C19.6092 38.6868 20.0812 40.8612 21.6881 42.3423C22.2711 42.8798 22.9724 43.2872 23.7571 43.5562C24.4999 43.8109 25.3175 43.9419 26.1799 43.9418C26.4557 43.9418 26.736 43.9284 27.0199 43.9015C27.294 43.8754 27.5714 43.8367 27.8514 43.7851C28.0102 43.7559 28.1689 43.7222 28.3276 43.6847C28.4843 43.6478 28.6412 43.607 28.7976 43.5631L30.1382 35.7892L28.7976 28.015C27.8435 28.2828 26.8982 28.6856 25.9963 29.2065C25.1438 29.6985 24.3301 30.2957 23.5839 30.9835Z" fill="#9F5B4C"/>
<path d="M35.9068 29.2362C35.1309 28.5209 34.1449 28.036 33.0323 27.8007C32.0204 27.5869 30.9035 27.5795 29.7438 27.7933C29.5851 27.8226 29.4263 27.8562 29.2676 27.8936C29.1108 27.9306 28.9541 27.9714 28.7975 28.0152V35.7894V43.5633C29.7517 43.2957 30.6969 42.8927 31.599 42.372C32.451 41.8801 33.2647 41.2829 34.0109 40.595C34.8784 39.7954 35.6135 38.9118 36.191 37.9861C36.8094 36.9944 37.247 35.9544 37.4721 34.9171C37.704 33.8483 37.6961 32.8188 37.464 31.886C37.2089 30.8603 36.6829 29.9515 35.9068 29.2362Z" fill="#743F31"/>
<path d="M0.642822 53.5859C0.642822 57.6806 4.24395 61 8.68613 61H28.7944L30.135 57.7073L28.7944 53.5859H0.642822Z" fill="#BD8176"/>
<path d="M28.7944 53.586V61H48.9027C53.3449 61 56.946 57.6806 56.946 53.586H28.7944Z" fill="#9F5B4C"/>
<path d="M24.7729 9.10157H20.7512C20.7512 7.33466 21.6475 6.37071 22.2407 5.73272C22.6795 5.26094 22.762 5.15986 22.762 4.77643C22.762 4.393 22.6795 4.29204 22.2407 3.82026C21.6475 3.1824 20.7512 2.21832 20.7512 0.451294H24.7729C24.7729 0.834973 24.8555 0.935929 25.2944 1.40784C25.8873 2.0457 26.7837 3.00965 26.7837 4.77643C26.7837 6.54333 25.8873 7.50729 25.2942 8.14527C24.8555 8.61705 24.7729 8.71813 24.7729 9.10157Z" fill="#EBF4FA"/>
<path d="M34.8268 9.10133H30.8052C30.8052 7.33443 31.7015 6.37047 32.2947 5.73249C32.7333 5.26071 32.816 5.15963 32.816 4.7762C32.816 4.39276 32.7334 4.29181 32.2947 3.82002C31.7015 3.18216 30.8052 2.21809 30.8052 0.451059V0.357147H34.8268V0.451183C34.8268 0.834862 34.9094 0.935817 35.3483 1.40772C35.9412 2.04546 36.8377 3.00942 36.8377 4.7762C36.8377 6.5431 35.9412 7.50705 35.3482 8.14504C34.9094 8.61682 34.8268 8.7179 34.8268 9.10133Z" fill="#C7DEEE"/>
</svg>
